<svg width="86" height="26" viewBox="0 0 86 26" fill="none" xmlns="http://www.w3.org/2000/svg">
<path d="M44.4735 5.56116C44.1152 4.66057 43.6084 3.89327 42.9536 3.26C42.2981 2.62672 41.4976 2.1339 40.553 1.78295C39.6077 1.43201 38.5478 1.25582 37.3745 1.25582H30.1266V15.8647H37.3745C38.5478 15.8647 39.6077 15.6932 40.553 15.3501C41.4976 15.0063 42.2981 14.5181 42.9536 13.8842C43.6084 13.2509 44.1155 12.4843 44.4735 11.583C44.8318 10.6831 45.0116 9.67566 45.0116 8.56028C45.0116 7.4449 44.8318 6.46175 44.4735 5.56116ZM41.5815 10.6438C41.3524 11.2249 41.0326 11.7091 40.6215 12.098C40.2097 12.4872 39.7215 12.7734 39.1577 12.9564C38.5939 13.1397 37.9765 13.2316 37.306 13.2316H33.1899V3.88863H37.306C37.9765 3.88863 38.5939 3.9844 39.1577 4.17489C39.7215 4.36608 40.2097 4.65199 40.6215 5.03331C41.0326 5.41535 41.3527 5.90031 41.5815 6.48748C41.8106 7.07537 41.9241 7.76654 41.9241 8.55957C41.9241 9.35259 41.8102 10.0638 41.5815 10.6431V10.6438Z" fill="#00006A"/>
<path d="M54.7285 1.25582H50.8413L45.3767 15.8647H48.5777L49.9038 12.2699H55.6892L56.9921 15.8647H60.2167L54.7285 1.25582ZM50.7042 9.9805L52.7847 4.30176L54.8652 9.9805H50.7039H50.7042Z" fill="#00006A"/>
<path d="M69.4083 1.25582L65.5896 7.85053L61.7258 1.25582H58.2497L63.9434 10.8507V15.8647H66.9842V10.8965L72.7924 1.25582H69.4083Z" fill="#00006A"/>
<path d="M85.4138 3.88934V1.25582H74.4383V15.8647H77.5023V9.63706H84.4075V7.18687H77.5023V3.88898H85.4135L85.4138 3.88934Z" fill="#00006A"/>
<path d="M35.2055 22.5527C35.1487 22.3851 35.062 22.2407 34.946 22.1185C34.8301 21.9959 34.6837 21.8977 34.5085 21.823C34.3326 21.749 34.1285 21.7054 33.8965 21.6936C34.1224 21.6818 34.3083 21.631 34.455 21.5413C34.6006 21.4516 34.7144 21.3487 34.7944 21.2326C34.8747 21.1164 34.9282 20.9938 34.955 20.8659C34.9821 20.7372 34.9953 20.6257 34.9953 20.53C34.9953 20.2319 34.936 19.9817 34.8169 19.7791C34.6977 19.5765 34.5414 19.4149 34.3472 19.2956C34.1542 19.1762 33.9361 19.0912 33.6956 19.0404C33.4544 18.9897 33.2081 18.9639 32.9583 18.9639H30.1263V24.6731H33.1903C33.4526 24.6731 33.7106 24.6488 33.9636 24.6012C34.2166 24.5537 34.4418 24.4719 34.6381 24.3557C34.8351 24.2388 34.9924 24.0798 35.1116 23.8768C35.2308 23.6742 35.2908 23.4144 35.2908 23.0977C35.2908 22.9012 35.2619 22.7196 35.2058 22.5527H35.2055ZM31.3228 19.9935H32.8959C33.0268 19.9935 33.1489 20.0021 33.262 20.02C33.3748 20.0379 33.474 20.0707 33.5571 20.119C33.6403 20.1665 33.7059 20.2337 33.7534 20.3202C33.8009 20.4067 33.8251 20.5182 33.8251 20.6554C33.8251 20.7926 33.8041 20.897 33.7627 20.9867C33.7206 21.0757 33.6624 21.1472 33.5882 21.2011C33.5136 21.2551 33.423 21.2923 33.3155 21.3126C33.2081 21.3337 33.0922 21.3444 32.9665 21.3444H31.3228V19.9932V19.9935ZM34.0171 23.3311C33.954 23.4208 33.869 23.4894 33.7623 23.5369C33.6549 23.5845 33.5357 23.6141 33.4048 23.6259C33.2731 23.6384 33.1393 23.6438 33.0022 23.6438H31.3225V22.2393H32.9662C33.1032 22.2393 33.2402 22.2479 33.3773 22.2658C33.5143 22.2836 33.6381 22.3179 33.7488 22.3687C33.8587 22.4194 33.9465 22.4913 34.0118 22.5838C34.0771 22.6757 34.1099 22.8029 34.1099 22.9637C34.1099 23.1245 34.0789 23.2414 34.0164 23.3311H34.0171Z" fill="#00006A"/>
<path d="M44.2693 20.6147C44.1027 20.2544 43.8775 19.9439 43.5949 19.6844C43.3122 19.4246 42.9814 19.2252 42.6028 19.0847C42.2245 18.945 41.8209 18.8749 41.3927 18.8749C40.9645 18.8749 40.5587 18.9461 40.1772 19.0894C39.7958 19.233 39.4624 19.4325 39.1766 19.6891C38.8908 19.9457 38.6642 20.2544 38.4975 20.6147C38.3308 20.9756 38.2477 21.3773 38.2477 21.8187C38.2477 22.26 38.3308 22.661 38.4975 23.022C38.6642 23.3829 38.8908 23.6917 39.1766 23.9483C39.4624 24.2049 39.7958 24.4043 40.1772 24.5473C40.5587 24.6909 40.9638 24.7624 41.3927 24.7624C41.8216 24.7624 42.2242 24.6924 42.6028 24.5519C42.9811 24.4115 43.3137 24.212 43.5995 23.9522C43.8854 23.6935 44.1102 23.3829 44.274 23.022C44.4374 22.661 44.5202 22.26 44.5202 21.8187C44.5202 21.3773 44.436 20.9756 44.2693 20.6147ZM43.1659 22.5792C43.0678 22.8115 42.934 23.0127 42.7641 23.1828C42.5942 23.3529 42.3919 23.4862 42.1567 23.5813C41.9208 23.677 41.6661 23.7246 41.3927 23.7246C41.1193 23.7246 40.8624 23.677 40.624 23.5813C40.3856 23.4862 40.1801 23.3529 40.0074 23.1828C39.8346 23.0127 39.699 22.8115 39.6009 22.5792C39.5028 22.3469 39.4539 22.0935 39.4539 21.819C39.4539 21.5446 39.5028 21.2912 39.6009 21.0578C39.699 20.8255 39.8346 20.6225 40.0074 20.4496C40.1801 20.2766 40.3856 20.1422 40.624 20.0471C40.8624 19.9521 41.1186 19.9035 41.3927 19.9035C41.6668 19.9035 41.9205 19.9517 42.1567 20.0471C42.3919 20.1422 42.596 20.2766 42.7687 20.4496C42.9408 20.6225 43.0756 20.8269 43.1706 21.0625C43.2655 21.298 43.3137 21.5499 43.3137 21.819C43.3137 22.0881 43.2637 22.3469 43.1656 22.5792H43.1659Z" fill="#00006A"/>
<path d="M53.5084 20.6147C53.3411 20.2544 53.1159 19.9439 52.8333 19.6844C52.5506 19.4246 52.2198 19.2252 51.8419 19.0847C51.4636 18.945 51.06 18.8749 50.6311 18.8749C50.2021 18.8749 49.7971 18.9461 49.4156 19.0894C49.0349 19.233 48.7008 19.4325 48.415 19.6891C48.1291 19.9457 47.9025 20.2544 47.7359 20.6147C47.5692 20.9756 47.4861 21.3773 47.4861 21.8187C47.4861 22.26 47.5692 22.661 47.7359 23.022C47.9025 23.3829 48.1291 23.6917 48.415 23.9483C48.7008 24.2049 49.0349 24.4043 49.4156 24.5473C49.7971 24.6909 50.2021 24.7624 50.6311 24.7624C51.06 24.7624 51.4636 24.6924 51.8419 24.5519C52.2195 24.4115 52.5521 24.212 52.8379 23.9522C53.1238 23.6935 53.3486 23.3829 53.5124 23.022C53.6765 22.661 53.7586 22.26 53.7586 21.8187C53.7586 21.3773 53.6755 20.9756 53.5088 20.6147H53.5084ZM52.4043 22.5792C52.3062 22.8115 52.1724 23.0127 52.0025 23.1828C51.8326 23.3529 51.6303 23.4862 51.3951 23.5813C51.16 23.677 50.9055 23.7246 50.6311 23.7246C50.3567 23.7246 50.1008 23.677 49.8624 23.5813C49.624 23.4862 49.4185 23.3529 49.2458 23.1828C49.073 23.0127 48.9374 22.8115 48.8393 22.5792C48.7412 22.3469 48.6923 22.0935 48.6923 21.819C48.6923 21.5446 48.7412 21.2912 48.8393 21.0578C48.9374 20.8255 49.073 20.6225 49.2458 20.4496C49.4185 20.2766 49.624 20.1422 49.8624 20.0471C50.1008 19.9521 50.357 19.9035 50.6311 19.9035C50.9052 19.9035 51.16 19.9517 51.3951 20.0471C51.6303 20.1422 51.8344 20.2766 52.0071 20.4496C52.1799 20.6225 52.314 20.8269 52.409 21.0625C52.5039 21.298 52.5524 21.5499 52.5524 21.819C52.5524 22.0881 52.5035 22.3469 52.4043 22.5792Z" fill="#00006A"/>
<path d="M59.9234 21.5231L62.5142 18.9639H60.9957L58.2975 21.6214V18.9732L57.0999 18.9639V24.6731H58.2975V23.1253L59.0747 22.3555L61.0136 24.6731H62.532L59.9234 21.5235V21.5231Z" fill="#00006A"/>
<path d="M65.6863 18.9639V24.6731H66.8832V18.9639H65.6863Z" fill="#00006A"/>
<path d="M74.6567 18.9639V22.7396L71.7615 18.9639H70.5995V24.6731H71.7971V20.9059L74.6923 24.6731H75.8532V18.9639H74.6563H74.6567Z" fill="#00006A"/>
<path d="M81.5448 21.4874V22.3372H84.3597L84.3326 22.7046C84.2733 22.8536 84.1823 22.9891 84.0599 23.1117C83.9375 23.2343 83.7919 23.3386 83.6224 23.4244C83.4525 23.5109 83.2634 23.5781 83.0546 23.6256C82.8459 23.6738 82.6232 23.6974 82.3848 23.6974C82.0751 23.6974 81.7978 23.6499 81.554 23.5548C81.3096 23.459 81.1008 23.3247 80.9281 23.1517C80.7554 22.9794 80.6212 22.7757 80.5263 22.5434C80.4314 22.3111 80.3807 22.0631 80.3746 21.8012C80.3746 21.5267 80.4189 21.2765 80.5084 21.0496C80.598 20.8227 80.7272 20.6279 80.8971 20.4631C81.0669 20.2995 81.2725 20.1715 81.5137 20.0786C81.755 19.9857 82.0276 19.9399 82.3313 19.9399C82.5579 19.9399 82.7734 19.9596 82.979 19.9985C83.1845 20.0368 83.3708 20.0983 83.5371 20.1819C83.7038 20.2655 83.8469 20.3713 83.9661 20.4992C84.0852 20.6279 84.177 20.7816 84.2426 20.9602L85.3507 20.8084C85.2968 20.4864 85.1887 20.2062 85.0245 19.9671C84.8611 19.7291 84.6509 19.5272 84.3946 19.3635C84.1384 19.1998 83.844 19.0772 83.51 18.9968C83.1767 18.9157 82.8163 18.876 82.4291 18.876C81.9409 18.876 81.4969 18.9518 81.0976 19.1037C80.699 19.2556 80.3593 19.4646 80.0791 19.7298C79.7997 19.9957 79.5824 20.3062 79.4275 20.6608C79.2726 21.0156 79.1916 21.3963 79.1863 21.8015C79.1916 22.2482 79.2726 22.6546 79.4275 23.018C79.5824 23.3822 79.8011 23.6942 80.0838 23.9529C80.3664 24.2128 80.7076 24.4122 81.1069 24.5526C81.5055 24.6931 81.9494 24.7631 82.4383 24.7631C82.9272 24.7631 83.3105 24.6766 83.6267 24.5033C83.9421 24.3303 84.1866 24.1095 84.3593 23.8411V24.6731H85.4135V21.4874H81.5441H81.5448Z" fill="#00006A"/>
<path d="M6.86975 18.033L10.8987 24.8993C10.9408 24.9711 10.8891 25.0619 10.8056 25.0619H1.41907C0.949802 25.0619 0.569389 24.6809 0.569389 24.211V14.343L6.54643 17.7149C6.68025 17.7903 6.79159 17.9 6.86939 18.0326L6.86975 18.033Z" fill="#FE055B"/>
<path d="M6.54643 8.30405L0.569389 11.6759V1.80726C0.569389 1.3373 0.949802 0.956339 1.41907 0.956339H10.8056C10.8891 0.956339 10.9408 1.04711 10.8987 1.11895L6.86975 7.98634C6.79195 8.11892 6.68061 8.22864 6.54679 8.30405H6.54643Z" fill="#531C92"/>
<path d="M24.2434 8.05995C24.834 9.54664 25.1302 11.1959 25.1302 13.01L16.7883 8.30439C16.6545 8.22899 16.5431 8.11927 16.4653 7.98668L12.4364 1.11929C12.3943 1.04746 12.446 0.956688 12.5295 0.956688C14.4666 0.956688 16.2137 1.24724 17.7736 1.82583C19.3323 2.4055 20.6538 3.21818 21.7354 4.26351C22.816 5.30885 23.6525 6.57432 24.2438 8.05995H24.2434Z" fill="#FE055B"/>
<path d="M25.1302 13.0096C25.1302 14.8487 24.834 16.5105 24.2434 17.9972C23.6518 19.4828 22.8153 20.7494 21.7351 21.7937C20.6534 22.8401 19.3323 23.6452 17.7732 24.2124C16.2134 24.7785 14.4658 25.0615 12.5292 25.0615C12.4457 25.0615 12.3939 24.9707 12.436 24.8989L16.465 18.0326C16.5428 17.9 16.6541 17.7903 16.7879 17.7149L25.1299 13.0093L25.1302 13.0096Z" fill="#531C92"/>
<path d="M11.9272 6.837L13.2843 9.14924H10.0519L11.4076 6.837C11.5235 6.6383 11.8108 6.6383 11.9268 6.837H11.9272Z" fill="#0EB1FD"/>
<path d="M10.2442 16.8693C10.2435 16.8661 10.2428 16.8622 10.2417 16.8593C10.4262 16.8 10.6107 16.7407 10.7952 16.6824C11.4329 16.4787 12.0699 16.2754 12.7083 16.0735C12.7544 16.0588 12.769 16.0384 12.769 15.9891C12.7683 14.0943 12.7683 12.1991 12.7697 10.3043C12.7697 10.2503 12.754 10.2271 12.7037 10.2074C11.813 9.86758 10.9237 9.52521 10.0337 9.18355C10.0329 9.18355 10.0322 9.18284 10.0312 9.18284L9.24464 10.5241C9.21752 10.5702 9.17862 10.6084 9.13258 10.6342L5.38627 12.7466C5.18143 12.8621 5.18143 13.1576 5.38627 13.273L9.13258 15.3855C9.17862 15.4119 9.21752 15.4502 9.24464 15.4956L11.4072 19.1816C11.5232 19.3803 11.8105 19.3803 11.9264 19.1816L13.2836 16.8693H10.2435H10.2442ZM11.8668 12.7098C12.036 12.7084 12.1705 12.8417 12.1705 13.01C12.1712 13.1762 12.0388 13.3102 11.8747 13.3116C11.7055 13.3141 11.571 13.1798 11.5703 13.0114C11.5703 12.8445 11.7013 12.7112 11.8668 12.7098Z" fill="#0EB1FD"/>
<path d="M17.9477 13.273L14.2021 15.3855C14.1561 15.4119 14.1172 15.4502 14.0908 15.4956L13.3564 16.7464V9.27359L14.0908 10.5244C14.1172 10.5705 14.1561 10.6088 14.2028 10.6345L17.9474 12.747C18.1522 12.8624 18.1522 13.1579 17.9474 13.2734L17.9477 13.273Z" fill="#0EB1FD"/>
<path d="M9.97798 9.14925H10.0519L10.0315 9.18284C10.013 9.17498 9.99404 9.16569 9.97762 9.14925H9.97798Z" fill="white"/>
<path d="M13.3567 9.14925V9.27326L13.2843 9.14925H13.3567Z" fill="white"/>
<path d="M13.2843 16.8693L13.3567 16.746V16.8693H13.2843Z" fill="white"/>
</svg>
